<?xml version="1.0" standalone="no"?>
<!DOCTYPE svg PUBLIC "-//W3C//DTD SVG 20010904//EN"
 "http://www.w3.org/TR/2001/REC-SVG-20010904/DTD/svg10.dtd">
<svg version="1.0" xmlns="http://www.w3.org/2000/svg"
 width="225.000000pt" height="225.000000pt" viewBox="0 0 225.000000 225.000000"
 preserveAspectRatio="xMidYMid meet">
<metadata>
Created by potrace 1.15, written by Peter Selinger 2001-2017
</metadata>
<g transform="translate(0.000000,225.000000) scale(0.100000,-0.100000)"
fill="#000000" stroke="none">
<path d="M1010 2103 c-1 -5 -13 -23 -29 -41 -21 -24 -45 -37 -93 -51 -64 -17
-67 -17 -113 1 l-47 19 -93 -53 c-96 -54 -105 -65 -105 -132 0 -28 -98 -126
-127 -126 -66 0 -77 -9 -131 -105 l-53 -93 19 -47 c18 -46 18 -49 1 -113 -14
-48 -27 -72 -51 -93 -18 -16 -36 -28 -40 -29 -5 0 -8 -52 -8 -115 0 -63 3
-115 8 -115 4 -1 22 -13 40 -29 24 -21 37 -45 51 -93 17 -64 17 -67 -1 -113
l-19 -47 53 -94 c53 -95 64 -104 123 -104 24 0 43 -12 83 -53 29 -30 52 -62
52 -74 0 -66 9 -77 105 -131 l93 -53 47 19 c46 18 49 18 113 1 48 -14 72 -27
93 -51 16 -18 28 -36 29 -40 0 -5 52 -8 115 -8 63 0 115 3 115 8 1 4 13 22 29
40 21 24 45 37 93 51 64 17 67 17 113 -1 l47 -19 94 53 c95 53 104 64 104 123
0 43 92 135 135 135 59 0 70 10 123 104 l53 94 -19 47 c-18 46 -18 49 -1 113
14 48 27 72 51 93 18 16 36 28 41 29 4 0 7 52 7 115 0 63 -3 115 -7 115 -5 1
-23 13 -41 29 -24 21 -37 45 -51 93 -17 64 -17 67 1 113 l19 47 -53 93 c-54
96 -65 105 -132 105 -34 0 -126 99 -126 135 0 59 -10 70 -104 123 l-94 53 -47
-19 c-46 -18 -49 -18 -113 -1 -48 14 -72 27 -93 51 -16 18 -28 36 -29 41 0 4
-52 7 -115 7 -63 0 -115 -3 -115 -7z m320 -168 c36 -9 110 -39 165 -66 168
-82 291 -205 375 -374 71 -144 84 -202 84 -370 0 -168 -13 -226 -84 -370 -84
-169 -207 -292 -375 -374 -140 -69 -211 -86 -370 -85 -230 0 -397 65 -562 218
-122 114 -191 224 -240 383 -23 77 -26 105 -26 228 0 123 3 151 26 228 47 154
115 265 228 373 128 121 253 186 424 220 88 17 266 12 355 -11z"/>
<path d="M970 1925 c-288 -62 -506 -246 -606 -511 -209 -556 222 -1139 814
-1101 123 8 195 27 307 82 164 80 291 207 370 370 66 136 79 196 79 360 0 164
-13 224 -79 360 -50 104 -127 201 -217 275 -71 58 -214 131 -303 155 -84 22
-283 28 -365 10z m-120 -470 c0 -13 37 -15 275 -15 238 0 275 2 275 15 0 10
10 15 30 15 l30 0 0 -85 0 -85 -30 0 c-28 0 -30 2 -30 40 l0 40 -110 0 -110 0
0 -300 0 -300 55 0 c48 0 55 -2 55 -20 0 -19 -7 -20 -165 -20 -158 0 -165 1
-165 20 0 18 7 20 55 20 l55 0 0 300 0 300 -110 0 -110 0 0 -40 c0 -38 -2 -40
-30 -40 l-30 0 0 85 0 85 30 0 c20 0 30 -5 30 -15z"/>
</g>
</svg>
